<svg xmlns="http://www.w3.org/2000/svg" width="36" height="36" viewBox="0 0 36 36">
  <path id="icon" d="M95.848,54.2h29.1a3.484,3.484,0,0,0,2.441-1,3.373,3.373,0,0,0,1.011-2.4V32.62a.956.956,0,0,0-.348-.735l-4.817-4V20.9a2.674,2.674,0,0,0-.8-1.906,2.762,2.762,0,0,0-1.937-.789h-20a2.762,2.762,0,0,0-1.937.789,2.674,2.674,0,0,0-.8,1.906v6.835l-5.009,4.151a.956.956,0,0,0-.348.735V50.8a3.373,3.373,0,0,0,1.011,2.4,3.483,3.483,0,0,0,2.441,1Zm29.094-1.925H95.848a1.509,1.509,0,0,1-1.057-.433,1.462,1.462,0,0,1-.438-1.041V34.457L105.5,42.22l-7.916,5.961a.953.953,0,0,0-.2,1.348.989.989,0,0,0,1.37.192l8.417-6.338,2.739,1.925a.991.991,0,0,0,1.131,0l2.739-1.925,8.421,6.327a.989.989,0,0,0,1.37-.192.953.953,0,0,0-.2-1.348l-7.9-5.949L126.44,34.6V50.807h0A1.462,1.462,0,0,1,126,51.846a1.51,1.51,0,0,1-1.056.432Zm.951-19.662-2.661,1.852V30.4Zm-25.4-12.484h20a.79.79,0,0,1,.554.225.765.765,0,0,1,.229.545V35.819l-10.785,7.513-10.78-7.513V20.9a.776.776,0,0,1,.779-.766ZM97.753,34.468l-2.77-1.925,2.77-2.311Zm12.643,3.92h.251a.963.963,0,1,0,0-1.925H110.4a6.289,6.289,0,0,1-4.411-1.8,6.069,6.069,0,0,1,0-8.68,6.309,6.309,0,0,1,8.821,0,6.09,6.09,0,0,1,1.827,4.34v1.644a1.073,1.073,0,0,1-.563.877,1.107,1.107,0,0,1-1.054,0,1.073,1.073,0,0,1-.563-.877V30.325a3.979,3.979,0,0,0-1.509-3.139,4.118,4.118,0,0,0-3.435-.8,4.06,4.06,0,0,0-2.777,2.143A3.948,3.948,0,0,0,106.7,32a4.057,4.057,0,0,0,2.739,2.191,4.121,4.121,0,0,0,3.448-.739A3.042,3.042,0,0,0,115,34.94a3.079,3.079,0,0,0,2.507-.654,2.977,2.977,0,0,0,1.086-2.318V30.325a8,8,0,0,0-2.4-5.7,8.288,8.288,0,0,0-11.588,0,7.973,7.973,0,0,0,0,11.4,8.261,8.261,0,0,0,5.794,2.362Zm0-6a2.12,2.12,0,0,1-1.486-.605,2.045,2.045,0,0,1,0-2.925,2.126,2.126,0,0,1,2.972,0,2.045,2.045,0,0,1,0,2.925A2.12,2.12,0,0,1,110.4,32.392Z" transform="translate(-92.396 -18.203)" fill="#fff"/>
</svg>
