<svg xmlns="http://www.w3.org/2000/svg" width="36" height="36" viewBox="0 0 36 36">
  <g id="icon" transform="translate(-88.463 -11.668)">
    <path id="Path_5" data-name="Path 5" d="M92.426,11.668A3.962,3.962,0,0,0,88.539,16.4,40.17,40.17,0,0,0,99.33,36.8a40.169,40.169,0,0,0,20.4,10.791,3.963,3.963,0,0,0,4.737-3.887V37.313a2.377,2.377,0,0,0-1.495-2.208l-5.959-2.384a2.38,2.38,0,0,0-2.565.526l-3.118,3.118a.792.792,0,0,1-.984.11,40.553,40.553,0,0,1-5.928-4.76,40.154,40.154,0,0,1-4.753-5.924.789.789,0,0,1,.105-.985l0,0c.9-.9,2.273-2.278,3.114-3.118a2.38,2.38,0,0,0,.526-2.565l-2.384-5.959a2.377,2.377,0,0,0-2.208-1.495Zm0,1.585h6.391a.791.791,0,0,1,.735.5l2.384,5.959a.793.793,0,0,1-.176.855c-.841.842-2.215,2.216-3.117,3.121a2.376,2.376,0,0,0-.312,2.969l0,.007a41.968,41.968,0,0,0,4.956,6.174,42.364,42.364,0,0,0,6.17,4.959l.009.006a2.378,2.378,0,0,0,2.975-.315l3.118-3.117a.793.793,0,0,1,.855-.176l5.959,2.384a.791.791,0,0,1,.5.735V43.7a2.378,2.378,0,0,1-2.842,2.332,38.554,38.554,0,0,1-19.584-10.357A38.564,38.564,0,0,1,90.093,16.1a2.378,2.378,0,0,1,2.333-2.842Z" transform="translate(0)" fill="#fff" fill-rule="evenodd"/>
    <path id="Path_6" data-name="Path 6" d="M339.126,199.922a3.972,3.972,0,0,1,3.97,3.97.794.794,0,0,0,1.588,0,5.562,5.562,0,0,0-5.559-5.559.794.794,0,1,0,0,1.588Z" transform="translate(-232.9 -173.989)" fill="#fff" fill-rule="evenodd"/>
    <path id="Path_7" data-name="Path 7" d="M339.122,129.919a8.738,8.738,0,0,1,8.735,8.735.794.794,0,1,0,1.588,0,10.329,10.329,0,0,0-10.323-10.323.794.794,0,1,0,0,1.588Z" transform="translate(-232.903 -108.742)" fill="#fff" fill-rule="evenodd"/>
    <path id="Path_8" data-name="Path 8" d="M339.13,59.923a13.505,13.505,0,0,1,13.5,13.5.793.793,0,1,0,1.587,0,15.1,15.1,0,0,0-15.087-15.087.793.793,0,1,0,0,1.587Z" transform="translate(-232.932 -43.492)" fill="#fff" fill-rule="evenodd"/>
  </g>
</svg>
