<svg xmlns="http://www.w3.org/2000/svg" width="44" height="36" viewBox="0 0 44 36">
  <g id="location-4247754" transform="translate(-159.6 -115.919)">
    <path id="Path_1" data-name="Path 1" d="M270.51,115.919a10.669,10.669,0,0,0-10.67,10.67c0,3.04,2.667,7.754,4.9,11.166,1.427,2.233,2.73,3.908,3.412,4.777,1.8,2.3,1.985,2.3,2.357,2.3s.558,0,2.357-2.233c.682-.868,1.985-2.605,3.412-4.777,2.233-3.412,4.9-8.126,4.9-11.228a10.669,10.669,0,0,0-10.67-10.67Zm0,26.86c-2.047-2.357-8.995-11.91-8.995-16.253a8.995,8.995,0,1,1,17.989,0C279.5,130.869,272.557,140.422,270.51,142.779Z" transform="translate(-88.941)" fill="#fff"/>
    <path id="Path_2" data-name="Path 2" d="M318.315,161.84a4.714,4.714,0,1,0,4.714,4.714A4.673,4.673,0,0,0,318.315,161.84Zm0,7.754a3.04,3.04,0,0,1,0-6.079,3.005,3.005,0,0,1,3.04,3.04A3.045,3.045,0,0,1,318.315,169.594Z" transform="translate(-136.747 -40.834)" fill="#fff"/>
    <path id="Path_3" data-name="Path 3" d="M238.835,354.957c-2.452,0-14.835-.186-14.835-3.288,0-.558,0-2.047,7.229-2.854a.843.843,0,1,1,.189,1.675,16.74,16.74,0,0,0-5.532,1.241c1.131.621,5.532,1.613,12.949,1.613s11.819-.992,12.949-1.612c-.5-.248-1.949-.807-5.783-1.241a.843.843,0,1,1,.189-1.675c6.6.744,7.481,1.861,7.481,2.854,0,3.1-12.321,3.287-14.835,3.287Z" transform="translate(-57.266 -207.07)" fill="#fff"/>
    <path id="Path_4" data-name="Path 4" d="M181.631,336.583c-10.7,0-22.031-2.357-22.031-6.761,0-4.156,9.889-5.769,12.956-6.2a.843.843,0,1,1,.188,1.675c-7.511.993-11.516,3.04-11.516,4.528,0,2.109,7.761,5.087,20.341,5.087s20.341-2.977,20.341-5.087c0-1.489-3.88-3.474-11.266-4.466a.833.833,0,0,1-.689-.93.793.793,0,0,1,.939-.682c3,.372,12.706,1.985,12.706,6.141.062,4.343-11.266,6.7-21.969,6.7Z" transform="translate(0 -184.664)" fill="#fff"/>
  </g>
</svg>
